<?xml version="1.0" standalone="no"?>
<!DOCTYPE svg PUBLIC "-//W3C//DTD SVG 20010904//EN"
 "http://www.w3.org/TR/2001/REC-SVG-20010904/DTD/svg10.dtd">
<svg version="1.0" xmlns="http://www.w3.org/2000/svg"
 width="512.000000pt" height="512.000000pt" viewBox="0 0 512.000000 512.000000"
 preserveAspectRatio="xMidYMid meet">
<metadata>
Created by potrace 1.15, written by Peter Selinger 2001-2017
</metadata>
<g transform="translate(0.000000,512.000000) scale(0.100000,-0.100000)"
fill="#000000" stroke="none">
<path d="M203 4958 c-174 -172 -196 -198 -191 -231 3 -19 32 5 192 163 103
102 192 193 197 203 8 14 5 17 -17 17 -21 0 -60 -33 -181 -152z"/>
<path d="M303 4858 c-140 -139 -264 -265 -275 -281 -10 -15 -18 -37 -16 -50 3
-18 49 23 292 263 158 157 292 293 297 303 8 14 5 17 -17 17 -22 0 -75 -47
-281 -252z"/>
<path d="M402 4758 c-194 -194 -362 -365 -373 -381 -11 -15 -19 -37 -17 -50 4
-18 67 40 392 363 213 212 392 393 397 403 8 14 5 17 -18 17 -22 0 -89 -62
-381 -352z"/>
<path d="M502 4658 c-249 -249 -462 -465 -473 -481 -11 -15 -19 -37 -17 -50 4
-18 84 57 492 463 268 267 492 493 497 503 8 14 5 17 -18 17 -22 0 -104 -76
-481 -452z"/>
<path d="M602 4558 c-304 -304 -562 -565 -573 -581 -11 -15 -19 -37 -17 -50 4
-18 101 75 592 563 323 322 592 593 597 603 8 14 5 17 -18 17 -23 0 -118 -91
-581 -552z"/>
<path d="M702 4458 c-359 -359 -662 -665 -673 -681 -11 -15 -19 -37 -17 -50 4
-18 118 92 692 663 378 377 692 693 697 703 8 14 5 17 -18 17 -23 0 -133 -106
-681 -652z"/>
<path d="M1231 4783 c-179 -179 -303 -308 -276 -286 28 22 93 72 145 111 84
62 510 476 510 495 0 4 -12 7 -27 7 -22 0 -86 -59 -352 -327z"/>
<path d="M1624 4978 c-74 -72 -132 -133 -131 -135 2 -2 28 8 58 21 40 18 81
52 157 129 56 57 102 107 102 111 0 3 -12 6 -26 6 -20 0 -57 -31 -160 -132z"/>
<path d="M2459 5013 c-89 -86 -99 -100 -99 -132 l0 -36 116 115 c135 134 146
150 109 150 -19 0 -52 -25 -126 -97z"/>
<path d="M2564 4918 c-185 -183 -211 -217 -187 -242 4 -4 93 79 199 185 l191
191 -4 -53 c-2 -30 -6 -63 -8 -74 -3 -11 -577 -593 -1277 -1292 l-1273 -1273
-52 0 c-28 0 -60 -3 -70 -6 -10 -4 69 81 175 188 106 106 190 197 186 201 -25
24 -59 -2 -242 -187 -156 -157 -192 -198 -192 -221 0 -26 1 -27 24 -12 l24 16
4 -57 c5 -52 2 -60 -24 -93 -18 -23 -28 -46 -26 -59 l3 -23 31 26 31 27 11
-52 10 -52 -44 -49 c-26 -29 -44 -59 -44 -73 0 -13 2 -24 5 -24 3 0 25 18 50
41 l44 41 14 -49 14 -48 -63 -68 c-44 -46 -64 -75 -64 -93 0 -32 18 -23 85 45
27 28 52 51 56 51 4 0 12 -21 18 -46 l12 -46 -86 -89 c-61 -63 -85 -95 -85
-114 0 -14 3 -25 6 -25 4 0 46 39 95 87 49 47 90 85 92 82 1 -2 11 -21 20 -43
l18 -38 -116 -118 c-87 -89 -115 -125 -115 -144 0 -14 3 -26 7 -26 3 0 59 52
124 116 l117 116 22 -42 21 -42 -145 -148 c-114 -115 -146 -154 -146 -174 0
-39 15 -28 174 133 l140 140 23 -41 24 -41 -181 -182 c-142 -144 -180 -188
-180 -209 0 -14 3 -26 7 -26 4 0 91 84 194 186 l186 186 22 -35 c11 -19 21
-38 21 -43 0 -4 -97 -105 -215 -224 -173 -175 -215 -222 -215 -244 0 -22 3
-25 18 -17 9 5 113 106 231 225 l215 215 27 -37 28 -37 -260 -261 c-211 -212
-259 -266 -259 -288 0 -22 3 -25 18 -17 9 5 132 125 272 265 244 245 255 255
273 238 51 -46 60 -33 -262 -356 -247 -248 -301 -307 -301 -330 0 -22 3 -25
18 -17 9 5 152 145 317 310 l299 301 33 -32 33 -32 -350 -351 c-289 -290 -350
-356 -350 -378 0 -23 3 -26 18 -18 9 5 174 167 366 359 l349 350 30 -35 30
-34 -371 -372 c-205 -205 -372 -376 -372 -380 0 -4 12 -7 27 -7 22 0 93 66
393 365 l366 365 32 -33 32 -33 -316 -314 c-173 -173 -320 -323 -325 -333 -8
-14 -5 -17 17 -17 23 0 84 57 345 317 l318 316 36 -28 37 -28 -281 -281 c-155
-155 -281 -285 -281 -289 0 -4 12 -7 27 -7 21 0 78 52 298 270 149 149 275
270 280 270 6 0 24 -11 40 -24 l30 -25 -237 -238 c-131 -132 -238 -242 -238
-246 0 -4 12 -7 27 -7 21 0 72 46 259 231 l232 231 41 -23 41 -23 -200 -201
c-110 -111 -200 -204 -200 -208 0 -4 12 -7 26 -7 21 0 68 40 223 195 l197 194
34 -20 c19 -12 37 -23 39 -25 3 -3 -68 -78 -157 -167 -89 -90 -162 -166 -162
-170 0 -4 12 -7 26 -7 21 0 62 35 188 159 l161 159 42 -22 43 -21 -121 -120
c-140 -140 -151 -155 -113 -155 20 0 56 29 155 126 l128 127 47 -18 46 -17
-101 -103 c-56 -56 -101 -105 -101 -109 0 -3 12 -6 26 -6 19 0 52 26 128 100
l103 100 47 -16 47 -16 -75 -78 c-42 -43 -76 -80 -76 -84 0 -3 11 -6 25 -6 18
0 49 22 104 75 l79 76 46 -13 c25 -7 46 -15 46 -18 0 -3 -18 -24 -41 -45 -22
-22 -45 -48 -50 -57 -8 -15 -5 -18 15 -18 16 0 46 19 85 55 49 46 64 55 85 50
14 -3 38 -7 52 -10 l26 -6 -36 -39 c-20 -22 -36 -42 -36 -45 0 -3 11 -5 24 -5
13 0 43 18 69 40 44 39 47 40 101 34 l56 -7 -27 -31 -26 -31 23 -3 c13 -2 37
8 60 27 34 27 47 31 100 31 l61 0 -21 -28 -22 -27 22 -3 c13 -2 37 8 60 27 34
27 47 31 101 31 58 0 61 -1 47 -17 -46 -54 -3 -61 58 -10 33 29 50 35 108 41
l69 7 -32 -36 c-37 -43 -38 -45 -7 -45 15 0 45 19 78 48 43 39 64 51 113 61
33 7 69 15 80 18 13 4 -1 -16 -37 -55 -32 -33 -58 -63 -58 -66 0 -3 11 -6 25
-6 18 0 49 23 108 79 72 69 91 82 157 104 41 14 84 29 95 33 11 4 -26 -40 -82
-98 -57 -58 -103 -108 -103 -112 0 -3 12 -6 26 -6 27 0 122 89 479 449 151
152 158 162 142 178 -16 17 -25 10 -165 -130 l-148 -148 -17 36 c-9 20 -17 41
-17 48 0 6 63 75 139 152 131 131 139 141 125 160 -14 18 -21 13 -154 -120
l-139 -139 -20 45 -20 44 129 130 c72 72 130 135 130 141 0 7 -6 16 -13 22
-10 9 -42 -17 -137 -113 -69 -69 -127 -125 -131 -125 -3 0 -14 18 -24 41 l-19
40 435 434 c328 329 442 448 466 492 18 32 33 62 33 68 0 5 -217 -207 -482
-472 -512 -511 -491 -493 -638 -544 -54 -19 -40 -4 700 736 l755 755 45 -6
c25 -4 49 -9 54 -12 4 -2 -58 -71 -140 -153 -142 -142 -147 -149 -123 -158 22
-8 36 3 179 145 l155 154 48 -6 c26 -4 49 -10 52 -14 2 -3 -66 -76 -151 -161
-84 -84 -154 -157 -154 -160 0 -4 14 -12 32 -18 17 -6 28 -8 25 -4 -4 4 85
100 198 213 163 165 205 212 205 233 0 15 -2 27 -5 27 -2 0 -20 -14 -40 -31
l-36 -32 7 69 c6 58 12 75 41 108 51 61 44 104 -9 58 -17 -14 -18 -11 -18 47
0 54 4 67 31 101 19 23 29 47 27 60 l-3 22 -27 -22 -28 -21 0 61 c0 53 4 66
31 100 19 23 29 47 27 60 l-3 23 -31 -26 -31 -27 -7 56 c-6 54 -5 57 34 101
22 26 40 56 40 69 0 13 -2 24 -5 24 -3 0 -23 -16 -45 -36 l-39 -36 -6 26 c-3
14 -7 38 -10 52 -5 21 4 36 50 85 36 39 55 69 55 85 0 20 -3 23 -17 15 -10 -5
-36 -28 -58 -50 -21 -23 -42 -41 -45 -41 -3 0 -11 21 -18 46 l-13 46 76 79
c53 55 75 86 75 104 0 14 -3 25 -6 25 -4 0 -41 -34 -84 -76 l-78 -76 -14 49
-15 48 99 102 c72 75 98 109 98 127 0 14 -3 26 -6 26 -4 0 -53 -45 -109 -101
l-103 -101 -17 46 -18 47 127 128 c97 99 126 135 126 155 0 38 -15 27 -155
-113 l-120 -121 -21 43 -22 42 159 161 c124 126 159 167 159 188 0 14 -3 26
-7 26 -4 0 -80 -73 -170 -162 -89 -89 -164 -160 -166 -157 -2 2 -13 20 -25 39
l-21 35 194 196 c155 156 195 202 195 223 0 14 -3 26 -7 26 -4 0 -97 -90 -208
-200 l-201 -200 -23 41 -23 41 231 232 c185 187 231 238 231 259 0 15 -3 27
-7 27 -4 0 -114 -107 -246 -237 l-238 -238 -25 30 c-13 17 -24 34 -24 40 0 5
122 131 270 280 218 220 270 277 270 298 0 15 -3 27 -7 27 -4 0 -134 -126
-289 -281 l-281 -281 -28 37 -28 36 316 318 c260 261 317 322 317 345 0 22 -3
25 -17 17 -10 -5 -160 -152 -333 -325 l-314 -316 -33 32 -33 32 365 366 c299
300 365 371 365 393 0 15 -3 27 -7 27 -4 0 -176 -168 -383 -373 l-375 -373
-31 32 -31 32 349 349 c192 191 354 356 359 366 8 14 5 17 -18 17 -22 0 -88
-61 -378 -350 l-351 -350 -32 33 -32 33 301 299 c165 165 305 308 310 318 8
14 5 17 -17 17 -23 0 -82 -54 -330 -301 -323 -322 -310 -313 -356 -262 -17 18
-7 29 238 273 140 140 260 263 265 273 8 14 5 17 -17 17 -22 0 -76 -48 -288
-259 l-261 -260 -37 28 -37 27 215 215 c119 118 220 222 225 232 8 14 5 17
-17 17 -22 0 -69 -42 -244 -215 -119 -118 -220 -215 -224 -215 -5 0 -24 10
-43 21 l-35 22 186 186 c102 103 186 190 186 194 0 4 -12 7 -26 7 -21 0 -65
-38 -209 -180 l-182 -181 -41 24 -41 23 140 140 c161 159 172 174 133 174 -20
0 -59 -32 -174 -145 l-147 -146 -39 18 c-22 9 -41 19 -43 20 -3 2 48 57 112
122 64 65 117 121 117 124 0 4 -12 7 -26 7 -19 0 -55 -28 -144 -115 l-118
-116 -38 18 c-22 9 -41 19 -43 20 -3 2 35 43 82 92 48 49 87 91 87 95 0 3 -11
6 -25 6 -19 0 -51 -24 -114 -85 l-89 -86 -46 12 c-25 6 -46 14 -46 18 0 4 23
29 51 56 68 67 77 85 45 85 -18 0 -47 -20 -93 -63 -65 -61 -69 -63 -103 -55
-65 16 -65 16 -21 63 22 24 41 47 41 50 0 3 -11 5 -24 5 -14 0 -44 -18 -73
-44 l-49 -44 -52 10 -52 11 27 31 26 31 -23 3 c-13 2 -36 -8 -59 -26 -33 -26
-41 -29 -93 -24 l-57 4 16 24 c15 23 14 24 -12 24 -23 0 -64 -36 -221 -192z
m178 -159 l-4 -66 -1157 -1156 -1156 -1155 -69 -5 -69 -5 1229 1229 c675 675
1229 1227 1230 1226 0 -1 -1 -32 -4 -68z m-14 -176 c-3 -25 1 -29 30 -33 32
-5 24 -13 -589 -625 -342 -341 -601 -594 -575 -562 76 97 58 103 -65 21 -77
-51 -29 -1 556 585 352 353 641 641 643 641 2 0 2 -12 0 -27z m219 -62 c8 -4
-281 -300 -782 -801 l-795 -795 0 40 c1 90 2 91 763 853 l722 723 40 -7 c22
-3 46 -9 52 -13z m163 -37 c9 -3 -275 -294 -815 -834 -750 -750 -831 -828
-849 -818 -12 6 -29 18 -39 26 -17 15 33 67 799 833 l817 817 36 -10 c20 -5
43 -11 51 -14z m136 -44 c27 -11 25 -13 -212 -253 -249 -251 -276 -282 -339
-382 -31 -50 18 -5 296 272 l334 332 45 -20 44 -20 -417 -417 c-400 -400 -435
-440 -410 -466 4 -4 202 188 439 425 l433 433 40 -19 c23 -10 41 -21 41 -24 0
-3 -199 -205 -441 -447 -422 -422 -441 -442 -419 -454 22 -12 46 11 465 430
l443 443 36 -22 c20 -13 36 -26 36 -29 0 -4 -170 -177 -377 -384 -372 -372
-377 -378 -323 -357 49 18 83 48 297 261 210 210 240 244 232 261 -14 24 -4
34 16 17 14 -12 29 -1 109 79 100 99 97 98 151 56 19 -15 16 -19 -70 -105 -85
-85 -89 -91 -72 -107 16 -17 22 -13 110 75 l93 92 32 -33 32 -33 -85 -84 c-65
-64 -82 -87 -73 -97 6 -7 15 -13 22 -13 6 0 48 37 93 82 l83 83 32 -33 33 -32
-85 -85 c-80 -80 -84 -86 -67 -102 16 -17 22 -13 101 66 l84 84 30 -34 31 -34
-86 -86 c-79 -80 -84 -88 -73 -109 12 -22 15 -20 101 66 l89 89 25 -30 c13
-17 24 -35 25 -40 0 -6 -42 -52 -93 -103 -84 -84 -93 -96 -89 -124 5 -30 5
-30 112 77 l107 107 22 -35 c11 -19 21 -38 21 -43 0 -5 -59 -68 -131 -139 -72
-72 -149 -158 -171 -192 -39 -62 -125 -148 -180 -181 -32 -18 -40 -59 -10 -47
9 4 23 8 30 8 6 0 10 3 7 6 -6 6 475 491 487 491 4 0 16 -17 27 -37 l20 -38
-197 -197 c-194 -195 -196 -198 -162 -198 32 0 50 15 205 170 93 94 173 170
176 170 3 0 14 -18 24 -41 l19 -40 -133 -133 c-72 -72 -129 -135 -125 -139 23
-22 56 0 164 108 l115 115 16 -47 17 -48 -86 -87 c-82 -84 -85 -88 -67 -102
19 -14 25 -10 96 61 l77 75 12 -52 12 -51 -83 -87 c-46 -48 -92 -102 -101
-120 -9 -17 -30 -37 -45 -44 -15 -6 -164 -147 -330 -312 -282 -280 -303 -303
-303 -336 0 -34 14 -21 439 404 l439 439 7 -39 c4 -21 9 -46 11 -54 2 -10
-165 -184 -450 -469 -286 -286 -457 -464 -461 -480 -3 -14 -8 -35 -11 -46 -3
-11 205 191 464 448 l469 469 7 -58 7 -58 -1069 -1068 -1068 -1069 -58 7 -58
7 568 568 c313 313 566 569 563 569 -4 0 -26 -7 -50 -15 -37 -13 -133 -104
-594 -565 l-550 -549 -45 9 c-25 5 -49 9 -55 10 -5 0 231 241 525 535 516 516
534 535 500 535 -33 0 -67 -32 -561 -526 l-527 -527 -52 13 -52 13 518 518
c497 497 516 518 490 525 -27 6 -57 -22 -545 -509 l-516 -515 -48 17 -48 16
252 250 c138 138 371 371 517 518 253 254 266 269 247 283 -18 14 -32 2 -223
-188 l-204 -203 6 70 6 70 168 167 c168 168 173 175 145 208 -2 2 -73 -65
-157 -149 l-154 -154 5 69 5 69 139 140 c111 112 139 146 139 168 0 15 -3 27
-7 27 -4 0 -63 -55 -130 -122 -68 -68 -123 -116 -123 -107 0 8 5 42 11 75 10
58 13 61 137 187 115 115 130 127 162 127 19 0 45 -3 58 -6 23 -7 23 -7 -14
-45 l-38 -39 35 0 c28 0 43 8 74 41 22 22 47 38 55 36 9 -2 39 -1 68 3 l53 7
-110 -111 c-99 -100 -111 -115 -111 -146 l1 -35 27 33 c15 18 43 49 62 67 19
19 115 112 213 207 163 159 177 175 177 207 l0 36 -93 -93 -93 -93 2 67 3 67
109 111 c60 61 115 126 122 145 19 49 53 84 140 151 74 56 120 111 120 141 0
8 -120 -107 -268 -254 l-267 -267 -44 21 -44 21 306 306 c261 262 306 310 301
330 -4 12 -9 22 -13 22 -3 0 -152 -145 -331 -323 l-325 -324 -59 5 -59 4 364
364 c345 345 363 365 346 381 -16 17 -36 -2 -400 -365 -361 -361 -385 -382
-419 -382 -19 0 -51 -3 -69 -6 -30 -6 18 46 381 410 394 396 414 418 395 432
-18 14 -38 -4 -342 -308 l-322 -322 19 63 c11 34 20 72 20 84 0 15 80 102 256
278 248 248 255 257 228 263 -26 7 -43 -8 -259 -224 l-232 -232 -18 47 -18 47
184 185 c182 183 184 185 144 179 -34 -5 -58 -24 -197 -163 -86 -86 -159 -155
-161 -153 -2 3 -14 20 -26 38 l-23 33 28 30 c26 27 27 30 11 46 -16 16 -19 15
-47 -12 l-30 -29 -32 32 -32 32 29 31 c29 30 29 31 11 45 -18 13 -23 11 -50
-15 l-31 -30 -37 28 -37 28 29 28 c23 22 27 32 19 42 -16 19 -30 16 -60 -13
l-28 -26 -35 22 c-20 12 -36 25 -36 29 0 4 11 18 25 31 19 18 22 26 14 37 -6
7 -17 13 -23 13 -6 0 -147 -135 -311 -300 -217 -218 -312 -306 -343 -320 -24
-11 -65 -35 -90 -53 -31 -21 -55 -32 -71 -29 -21 3 36 64 424 452 247 247 454
446 459 443 6 -3 8 -2 3 2 -4 5 163 179 370 387 403 404 378 384 449 358z
m-913 -1093 l25 -34 -191 -190 -192 -191 -68 -4 -68 -4 228 228 c125 125 231
228 234 228 4 0 18 -15 32 -33z m82 -114 l25 -38 -146 -146 -146 -146 -37 9
c-20 6 -43 12 -50 15 -10 2 46 65 154 173 94 94 171 170 172 170 1 0 14 -17
28 -37z m76 -124 l21 -42 -114 -114 -114 -114 -42 23 -42 23 133 133 c72 72
133 132 134 132 1 0 12 -19 24 -41z m-1331 -92 c-10 -23 -24 -65 -30 -92 -10
-48 -24 -63 -283 -323 -271 -272 -272 -272 -277 -240 -5 30 -8 33 -35 30 -26
-3 17 43 305 332 184 185 336 336 337 336 1 0 -7 -19 -17 -43z m1380 -49 c0
-60 -27 -109 -75 -135 -51 -28 -123 -45 -131 -31 -6 10 183 208 198 208 5 0 8
-19 8 -42z m-503 -156 c8 -5 -71 -91 -241 -261 l-253 -253 -22 35 c-11 19 -21
38 -21 43 0 5 98 107 217 226 l218 218 45 0 c25 0 50 -4 57 -8z m-991 -210
c-87 -89 -124 -120 -172 -141 -66 -31 -94 -61 -94 -101 0 -36 -175 -212 -183
-184 -25 89 -46 60 254 360 l274 274 16 -47 17 -48 -112 -113z m804 205 c0 -1
-79 -81 -176 -177 -161 -160 -175 -172 -169 -140 17 81 93 188 173 244 49 33
172 86 172 73z m317 -35 l33 -17 -273 -272 -272 -272 -35 29 -35 29 260 261
c143 143 267 260 275 260 8 -1 30 -9 47 -18z m-133 -383 l-277 -277 -30 35
-30 34 274 275 273 274 33 -32 33 -32 -276 -277z m-794 211 c0 -3 -19 -24 -42
-47 -40 -38 -49 -42 -113 -48 l-70 -7 85 86 85 87 28 -33 c15 -18 27 -35 27
-38z m2343 -1062 l-968 -968 -65 0 -65 0 1030 1030 1030 1030 3 -62 3 -62
-968 -968z m-1214 1044 l20 -39 -294 -293 c-194 -194 -296 -289 -299 -279 -3
7 -9 30 -14 49 l-10 35 282 283 c154 155 284 282 288 282 4 0 16 -17 27 -38z
m45 -182 c-5 -28 -56 -85 -305 -334 l-299 -301 0 65 0 65 297 297 c288 289
298 297 306 271 4 -16 5 -44 1 -63z m2129 -42 l-6 -66 -856 -855 -856 -855
-70 -6 -70 -7 930 930 c511 512 930 929 932 927 1 -1 0 -32 -4 -68z m-3701
-141 c8 -3 -25 -43 -91 -111 -58 -58 -107 -103 -110 -100 -4 3 -11 24 -17 47
l-11 42 90 92 91 92 17 -28 c10 -16 23 -31 31 -34z m532 -29 l7 -52 -278 -278
c-153 -153 -281 -278 -284 -278 -3 0 -14 18 -24 41 l-19 40 290 290 c159 159
292 289 295 289 4 0 10 -23 13 -52z m-104 39 c0 -1 -117 -119 -260 -262 l-259
-259 -20 44 -20 45 207 208 c187 188 210 207 242 208 19 1 49 5 65 9 37 9 45
11 45 7z m3352 -36 c4 -4 -342 -356 -770 -783 l-777 -776 -55 -11 c-30 -7 -66
-14 -80 -18 -16 -3 247 268 780 801 l805 806 45 -6 c25 -3 48 -9 52 -13z
m-3752 -166 c-96 -96 -177 -171 -181 -167 -4 4 -12 24 -19 46 l-12 38 127 128
127 127 66 1 66 1 -174 -174z m550 1 l12 -38 -268 -269 -268 -268 -24 41 -25
40 274 274 c150 150 276 270 280 266 4 -4 12 -24 19 -46z m700 -48 c-4 -18
-11 -53 -14 -78 -6 -44 -17 -56 -246 -285 -185 -185 -238 -233 -231 -209 16
56 39 89 108 155 56 53 71 73 76 104 6 34 27 60 159 192 84 84 154 153 155
153 1 0 -2 -15 -7 -32z m-665 -109 l7 -52 -238 -238 c-132 -132 -241 -239
-244 -239 -3 0 -16 16 -29 36 l-25 35 255 255 c139 140 257 254 260 254 4 0
10 -23 14 -51z m579 -280 c-63 -64 -69 -67 -126 -73 -33 -4 -67 -10 -76 -13
-9 -3 46 58 123 136 l140 141 3 -62 3 -61 -67 -68z m-554 91 l0 -45 -202 -202
-202 -203 -33 32 -33 32 227 228 c152 152 230 223 235 215 4 -7 8 -32 8 -57z
m-146 -390 l-164 -165 -32 33 -33 32 190 190 190 190 7 -57 7 -58 -165 -165z
m180 38 l13 -46 -126 -125 -126 -126 -34 31 -34 30 144 144 c79 79 144 142
146 140 2 -1 9 -23 17 -48z m-7 -265 c-62 -62 -116 -113 -122 -113 -5 1 -23
12 -40 25 l-30 25 119 119 119 119 32 -32 33 -31 -111 -112z m243 50 c6 -5
-233 -243 -244 -243 -5 0 -24 10 -43 21 l-35 22 117 117 117 118 42 -16 c22
-9 43 -17 46 -19z m213 -195 l-192 -192 -40 19 c-23 10 -41 21 -41 24 0 3 71
77 159 165 156 156 159 158 212 166 30 4 63 8 74 9 13 1 -45 -64 -172 -191z
m-70 175 l39 -6 -148 -148 -147 -148 -39 20 c-21 11 -38 23 -38 27 0 4 57 64
127 134 131 132 134 133 206 121z"/>
<path d="M3362 3717 c-106 -106 -192 -196 -192 -200 0 -4 12 -7 28 -7 22 0 60
33 205 178 97 97 177 182 177 188 0 7 -6 16 -13 22 -10 9 -57 -33 -205 -181z"/>
<path d="M3486 3641 c-146 -146 -149 -150 -122 -157 26 -6 39 4 163 128 113
113 134 139 128 157 -3 11 -9 21 -13 21 -4 0 -74 -67 -156 -149z"/>
<path d="M3590 3545 c-109 -109 -113 -115 -95 -129 19 -14 27 -8 128 92 73 73
107 113 105 126 -2 11 -8 21 -13 23 -6 2 -62 -49 -125 -112z"/>
<path d="M3842 2597 c-175 -176 -192 -196 -192 -227 0 -34 5 -29 220 185 219
219 228 231 175 234 -6 1 -97 -86 -203 -192z"/>
<path d="M2195 4533 c-12 -2 -377 -360 -812 -796 -730 -730 -792 -795 -798
-832 -7 -38 39 6 829 795 460 459 836 836 836 837 0 4 -29 1 -55 -4z"/>
<path d="M1925 4461 c-27 -13 -236 -216 -651 -632 -489 -491 -614 -622 -624
-652 -7 -21 -10 -40 -8 -42 2 -2 307 299 678 670 371 371 668 675 660 675 -8
0 -33 -9 -55 -19z"/>
<path d="M1585 4314 c-92 -55 -723 -686 -777 -777 -22 -38 -38 -70 -36 -72 2
-2 204 196 448 440 245 245 440 445 435 445 -6 0 -37 -16 -70 -36z"/>
<path d="M332 3887 c-263 -264 -322 -328 -322 -350 0 -15 3 -27 7 -27 19 0
433 426 495 510 39 52 89 116 110 143 22 26 38 47 36 47 -2 0 -149 -145 -326
-323z"/>
<path d="M142 3496 c-101 -103 -132 -140 -132 -160 0 -14 3 -26 6 -26 4 0 54
46 111 103 77 75 111 116 129 156 13 30 23 56 21 58 -2 1 -63 -57 -135 -131z"/>
<path d="M107 2661 c-72 -74 -97 -107 -97 -126 0 -37 16 -26 150 109 l115 116
-36 0 c-32 0 -46 -10 -132 -99z"/>
<path d="M4955 1908 c-155 -153 -158 -157 -131 -164 26 -6 37 3 143 107 134
133 156 161 151 192 -3 19 -27 -1 -163 -135z"/>
<path d="M4999 1754 c-77 -76 -114 -120 -129 -156 -12 -28 -20 -52 -17 -54 2
-2 63 56 135 130 101 103 132 140 132 160 0 14 -3 26 -6 26 -4 0 -56 -48 -115
-106z"/>
<path d="M4904 1457 c-167 -165 -225 -230 -283 -315 l-73 -107 267 265 c146
146 275 277 286 293 11 15 19 37 17 50 -3 19 -36 -9 -214 -186z"/>
<path d="M4396 750 c-394 -393 -722 -723 -727 -732 -8 -15 -5 -18 18 -18 23 0
137 110 711 683 376 375 692 694 703 710 11 15 19 37 17 50 -4 18 -124 -97
-722 -693z"/>
<path d="M4496 650 c-339 -338 -622 -623 -627 -632 -8 -15 -5 -18 18 -18 23 0
123 95 611 583 321 320 592 594 603 610 11 15 19 37 17 50 -4 18 -106 -80
-622 -593z"/>
<path d="M4596 550 c-284 -283 -522 -523 -527 -533 -8 -14 -5 -17 18 -17 23 0
108 81 511 483 266 265 492 494 503 510 11 15 19 37 17 50 -4 18 -89 -62 -522
-493z"/>
<path d="M4696 450 c-229 -228 -422 -423 -427 -432 -8 -15 -5 -18 18 -18 22 0
93 66 411 383 211 210 392 394 403 410 11 15 19 37 17 50 -4 18 -72 -45 -422
-393z"/>
<path d="M4796 350 c-174 -173 -322 -323 -327 -332 -8 -15 -5 -18 17 -18 23 0
80 52 312 282 156 156 293 295 303 311 11 15 19 37 17 50 -4 18 -54 -28 -322
-293z"/>
<path d="M4035 541 c-24 -18 -44 -26 -51 -20 -6 5 -103 -86 -270 -253 -219
-221 -255 -263 -237 -266 13 -2 35 6 50 17 29 21 561 551 553 551 -3 -1 -23
-14 -45 -29z"/>
<path d="M4896 250 c-119 -118 -222 -223 -227 -232 -8 -15 -5 -18 17 -18 21 0
65 37 211 183 205 202 226 227 221 260 -3 19 -37 -11 -222 -193z"/>
<path d="M4996 150 c-136 -133 -149 -150 -111 -150 18 0 49 23 111 82 102 98
127 130 122 161 -3 19 -19 7 -122 -93z"/>
</g>
</svg>
